<?xml version="1.0" encoding="UTF-8" standalone="no"?>
<svg
   height="24px"
   viewBox="0 0 24 24"
   width="24px"
   fill="#5f6368"
   version="1.1"
   id="svg2"
   xmlns:xlink="http://www.w3.org/1999/xlink"
   xmlns="http://www.w3.org/2000/svg"
   xmlns:svg="http://www.w3.org/2000/svg">
  <defs
     id="defs2">
    <linearGradient
       id="linearGradient3">
      <stop
         style="stop-color:#ecac00;stop-opacity:1;"
         offset="0.00316456"
         id="stop3" />
      <stop
         style="stop-color:#b40000;stop-opacity:1;"
         offset="0.5601266"
         id="stop4" />
    </linearGradient>
    <linearGradient
       xlink:href="#linearGradient3"
       id="linearGradient4"
       x1="5"
       y1="15.36"
       x2="19"
       y2="15.36"
       gradientUnits="userSpaceOnUse" />
  </defs>
  <path
     d="M0 0h24v24H0z"
     fill="none"
     id="path1" />
  <rect
     style="fill:#5a52ff;fill-opacity:1"
     id="rect3"
     width="2.0273292"
     height="3.3987577"
     x="10.978881"
     y="18.663353" />
  <path
     d="m 19,12 h -1.7 c 0,3 -2.54,5.1 -5.3,5.1 C 9.24,17.1 6.7,15 6.7,12 H 5 c 0,3.42 2.5709317,6.707019 7,6.72 4.518509,-0.003 7,-3.3 7,-6.72 z"
     id="path3"
     style="fill:url(#linearGradient4);fill-opacity:1" />
  <path
     d="m 12,15 c 1.66,0 2.99,-1.34 2.99,-3 L 15,6 C 15,4.34 13.66,3 12,3 10.34,3 9,4.34 9,6 v 6 c 0,1.66 1.34,3 3,3 z"
     id="path2"
     style="fill:#5a52ff;fill-opacity:1" />
</svg>
